<svg width="86" height="37" viewBox="0 0 86 37" fill="none" xmlns="http://www.w3.org/2000/svg">
<path d="M0.610085 18.7841V17.0227C2.19152 17.0227 3.29474 16.6913 3.91974 16.0284C4.55421 15.3655 4.87145 14.2576 4.87145 12.7045V8.15909C4.87145 6.85227 4.99455 5.72064 5.24077 4.7642C5.49645 3.80776 5.90838 3.01705 6.47656 2.39205C7.04474 1.76705 7.80232 1.30303 8.74929 1C9.69626 0.696968 10.8658 0.545453 12.2578 0.545453V3.32955C11.1593 3.32955 10.2929 3.5 9.65838 3.84091C9.03338 4.18182 8.58831 4.71212 8.32315 5.43182C8.06747 6.14204 7.93963 7.05114 7.93963 8.15909V13.8409C7.93963 14.5795 7.8402 15.2519 7.64134 15.858C7.45194 16.464 7.09683 16.9848 6.57599 17.4205C6.05516 17.8561 5.31179 18.1922 4.34588 18.429C3.38944 18.6657 2.14418 18.7841 0.610085 18.7841ZM12.2578 36.9091C10.8658 36.9091 9.69626 36.7576 8.74929 36.4545C7.80232 36.1515 7.04474 35.6875 6.47656 35.0625C5.90838 34.4375 5.49645 33.6468 5.24077 32.6903C4.99455 31.7339 4.87145 30.6023 4.87145 29.2955V24.75C4.87145 23.197 4.55421 22.089 3.91974 21.4261C3.29474 20.7633 2.19152 20.4318 0.610085 20.4318V18.6705C2.14418 18.6705 3.38944 18.7888 4.34588 19.0256C5.31179 19.2623 6.05516 19.5985 6.57599 20.0341C7.09683 20.4697 7.45194 20.9905 7.64134 21.5966C7.8402 22.2027 7.93963 22.875 7.93963 23.6136V29.2955C7.93963 30.4034 8.06747 31.3125 8.32315 32.0227C8.58831 32.733 9.03338 33.2585 9.65838 33.5994C10.2929 33.9498 11.1593 34.125 12.2578 34.125V36.9091ZM0.610085 20.4318V17.0227H3.96236V20.4318H0.610085ZM85.3864 18.6705V20.4318C83.8049 20.4318 82.697 20.7633 82.0625 21.4261C81.4375 22.089 81.125 23.197 81.125 24.75V29.2955C81.125 30.6023 80.9972 31.7339 80.7415 32.6903C80.4953 33.6468 80.0881 34.4375 79.5199 35.0625C78.9517 35.6875 78.1941 36.1515 77.2472 36.4545C76.3002 36.7576 75.1307 36.9091 73.7386 36.9091V34.125C74.8371 34.125 75.6989 33.9498 76.3239 33.5994C76.9583 33.2585 77.4034 32.733 77.6591 32.0227C77.9242 31.3125 78.0568 30.4034 78.0568 29.2955V23.6136C78.0568 22.875 78.1515 22.2027 78.3409 21.5966C78.5398 20.9905 78.8996 20.4697 79.4205 20.0341C79.9413 19.5985 80.6799 19.2623 81.6364 19.0256C82.6023 18.7888 83.8523 18.6705 85.3864 18.6705ZM73.7386 0.545453C75.1307 0.545453 76.3002 0.696968 77.2472 1C78.1941 1.30303 78.9517 1.76705 79.5199 2.39205C80.0881 3.01705 80.4953 3.80776 80.7415 4.7642C80.9972 5.72064 81.125 6.85227 81.125 8.15909V12.7045C81.125 14.2576 81.4375 15.3655 82.0625 16.0284C82.697 16.6913 83.8049 17.0227 85.3864 17.0227V18.7841C83.8523 18.7841 82.6023 18.6657 81.6364 18.429C80.6799 18.1922 79.9413 17.8561 79.4205 17.4205C78.8996 16.9848 78.5398 16.464 78.3409 15.858C78.1515 15.2519 78.0568 14.5795 78.0568 13.8409V8.15909C78.0568 7.05114 77.9242 6.14204 77.6591 5.43182C77.4034 4.71212 76.9583 4.18182 76.3239 3.84091C75.6989 3.5 74.8371 3.32955 73.7386 3.32955V0.545453ZM85.3864 17.0227V20.4318H82.0341V17.0227H85.3864Z" fill="#3BCBDE"/>
<path d="M40.3011 1.90909V31H36.267L21.4801 9.66477H21.2102V31H16.821V1.90909H20.8835L35.6847 23.2727H35.9545V1.90909H40.3011ZM56.1214 31H46.7038V1.90909H56.4197C59.2701 1.90909 61.718 2.49148 63.7635 3.65625C65.8089 4.81155 67.3762 6.47348 68.4652 8.64205C69.5637 10.8011 70.1129 13.3911 70.1129 16.4119C70.1129 19.4422 69.5589 22.0464 68.451 24.2244C67.3525 26.4025 65.7616 28.0786 63.6783 29.2528C61.5949 30.4176 59.076 31 56.1214 31ZM51.093 27.1648H55.88C58.0959 27.1648 59.9377 26.7481 61.4055 25.9148C62.8733 25.072 63.9718 23.8551 64.701 22.2642C65.4302 20.6638 65.7947 18.7131 65.7947 16.4119C65.7947 14.1297 65.4302 12.1932 64.701 10.6023C63.9813 9.01136 62.9065 7.80398 61.4766 6.98011C60.0466 6.15625 58.2711 5.74432 56.1499 5.74432H51.093V27.1648Z" fill="#F5F1F1"/>
</svg>
