<svg width="90" height="13" viewBox="0 0 90 13" fill="none" xmlns="http://www.w3.org/2000/svg">
<path d="M0.976385 6.33523V5.80682C1.45082 5.80682 1.78178 5.70739 1.96928 5.50852C2.15962 5.30966 2.25479 4.97727 2.25479 4.51136V3.14773C2.25479 2.75568 2.29173 2.41619 2.36559 2.12926C2.44229 1.84233 2.56587 1.60511 2.73633 1.41761C2.90678 1.23011 3.13406 1.09091 3.41815 1C3.70224 0.909091 4.05309 0.863636 4.4707 0.863636V1.69886C4.14116 1.69886 3.88121 1.75 3.69087 1.85227C3.50337 1.95455 3.36985 2.11364 3.29031 2.32955C3.2136 2.54261 3.17525 2.81534 3.17525 3.14773V4.85227C3.17525 5.07386 3.14542 5.27557 3.08576 5.45739C3.02894 5.6392 2.92241 5.79545 2.76616 5.92614C2.60991 6.05682 2.3869 6.15767 2.09712 6.22869C1.81019 6.29972 1.43661 6.33523 0.976385 6.33523ZM4.4707 11.7727C4.05309 11.7727 3.70224 11.7273 3.41815 11.6364C3.13406 11.5455 2.90678 11.4062 2.73633 11.2188C2.56587 11.0312 2.44229 10.794 2.36559 10.5071C2.29173 10.2202 2.25479 9.88068 2.25479 9.48864V8.125C2.25479 7.65909 2.15962 7.3267 1.96928 7.12784C1.78178 6.92898 1.45082 6.82955 0.976385 6.82955V6.30114C1.43661 6.30114 1.81019 6.33665 2.09712 6.40767C2.3869 6.47869 2.60991 6.57955 2.76616 6.71023C2.92241 6.84091 3.02894 6.99716 3.08576 7.17898C3.14542 7.3608 3.17525 7.5625 3.17525 7.78409V9.48864C3.17525 9.82102 3.2136 10.0938 3.29031 10.3068C3.36985 10.5199 3.50337 10.6776 3.69087 10.7798C3.88121 10.8849 4.14116 10.9375 4.4707 10.9375V11.7727ZM0.976385 6.82955V5.80682H1.98207V6.82955H0.976385ZM89.0225 6.30114V6.82955C88.5481 6.82955 88.2157 6.92898 88.0254 7.12784C87.8379 7.3267 87.7441 7.65909 87.7441 8.125V9.48864C87.7441 9.88068 87.7058 10.2202 87.6291 10.5071C87.5552 10.794 87.4331 11.0312 87.2626 11.2188C87.0922 11.4062 86.8649 11.5455 86.5808 11.6364C86.2967 11.7273 85.9458 11.7727 85.5282 11.7727V10.9375C85.8578 10.9375 86.1163 10.8849 86.3038 10.7798C86.4941 10.6776 86.6277 10.5199 86.7044 10.3068C86.7839 10.0938 86.8237 9.82102 86.8237 9.48864V7.78409C86.8237 7.5625 86.8521 7.3608 86.9089 7.17898C86.9686 6.99716 87.0765 6.84091 87.2328 6.71023C87.389 6.57955 87.6106 6.47869 87.8975 6.40767C88.1873 6.33665 88.5623 6.30114 89.0225 6.30114ZM85.5282 0.863636C85.9458 0.863636 86.2967 0.909091 86.5808 1C86.8649 1.09091 87.0922 1.23011 87.2626 1.41761C87.4331 1.60511 87.5552 1.84233 87.6291 2.12926C87.7058 2.41619 87.7441 2.75568 87.7441 3.14773V4.51136C87.7441 4.97727 87.8379 5.30966 88.0254 5.50852C88.2157 5.70739 88.5481 5.80682 89.0225 5.80682V6.33523C88.5623 6.33523 88.1873 6.29972 87.8975 6.22869C87.6106 6.15767 87.389 6.05682 87.2328 5.92614C87.0765 5.79545 86.9686 5.6392 86.9089 5.45739C86.8521 5.27557 86.8237 5.07386 86.8237 4.85227V3.14773C86.8237 2.81534 86.7839 2.54261 86.7044 2.32955C86.6277 2.11364 86.4941 1.95455 86.3038 1.85227C86.1163 1.75 85.8578 1.69886 85.5282 1.69886V0.863636ZM89.0225 5.80682V6.82955H88.0169V5.80682H89.0225Z" fill="#3BCBDE"/>
<path d="M16.2587 1.27273V10H15.0485L10.6124 3.59943H10.5314V10H9.21467V1.27273H10.4334L14.8738 7.68182H14.9547V1.27273H16.2587ZM20.8983 10.1321C20.2534 10.1321 19.698 9.99432 19.2321 9.71875C18.769 9.44034 18.411 9.04972 18.1582 8.54688C17.9082 8.04119 17.7832 7.44886 17.7832 6.76989C17.7832 6.09943 17.9082 5.50852 18.1582 4.99716C18.411 4.4858 18.7633 4.08665 19.215 3.79972C19.6696 3.51278 20.2008 3.36932 20.8088 3.36932C21.1781 3.36932 21.536 3.4304 21.8826 3.55256C22.2292 3.67472 22.5403 3.86648 22.8159 4.12784C23.0914 4.3892 23.3088 4.72869 23.4679 5.14631C23.627 5.56108 23.7065 6.06534 23.7065 6.65909V7.1108H18.5034V6.15625H22.4579C22.4579 5.82102 22.3897 5.52415 22.2534 5.26562C22.117 5.00426 21.9252 4.7983 21.6781 4.64773C21.4338 4.49716 21.1468 4.42188 20.8173 4.42188C20.4593 4.42188 20.1468 4.50994 19.8798 4.68608C19.6156 4.85937 19.411 5.08665 19.2662 5.3679C19.1241 5.64631 19.0531 5.94886 19.0531 6.27557V7.02131C19.0531 7.45881 19.1298 7.83097 19.2832 8.13778C19.4395 8.4446 19.6568 8.67898 19.9352 8.84091C20.2136 9 20.5389 9.07955 20.911 9.07955C21.1525 9.07955 21.3727 9.04545 21.5716 8.97727C21.7704 8.90625 21.9423 8.80114 22.0872 8.66193C22.2321 8.52273 22.3429 8.35085 22.4196 8.14631L23.6255 8.36364C23.5289 8.71875 23.3556 9.02983 23.1056 9.29688C22.8585 9.56108 22.5474 9.76705 22.1724 9.91477C21.8002 10.0597 21.3755 10.1321 20.8983 10.1321ZM26.5275 10L24.6014 3.45455H25.9181L27.2008 8.26136H27.2647L28.5517 3.45455H29.8684L31.1468 8.24006H31.2108L32.4849 3.45455H33.8017L31.8798 10H30.5801L29.2505 5.27415H29.1525L27.823 10H26.5275ZM37.9384 10H35.1131V1.27273H38.0279C38.883 1.27273 39.6174 1.44744 40.231 1.79688C40.8446 2.14347 41.3148 2.64205 41.6415 3.29261C41.9711 3.94034 42.1358 4.71733 42.1358 5.62358C42.1358 6.53267 41.9696 7.31392 41.6373 7.96733C41.3077 8.62074 40.8304 9.12358 40.2054 9.47585C39.5804 9.82528 38.8248 10 37.9384 10ZM36.4299 8.84943H37.8659C38.5307 8.84943 39.0833 8.72443 39.5236 8.47443C39.964 8.22159 40.2935 7.85653 40.5123 7.37926C40.731 6.89915 40.8404 6.31392 40.8404 5.62358C40.8404 4.93892 40.731 4.35795 40.5123 3.88068C40.2963 3.40341 39.9739 3.04119 39.5449 2.79403C39.1159 2.54687 38.5833 2.4233 37.9469 2.4233H36.4299V8.84943ZM46.492 10.1321C45.8471 10.1321 45.2917 9.99432 44.8258 9.71875C44.3627 9.44034 44.0048 9.04972 43.752 8.54688C43.502 8.04119 43.377 7.44886 43.377 6.76989C43.377 6.09943 43.502 5.50852 43.752 4.99716C44.0048 4.4858 44.3571 4.08665 44.8088 3.79972C45.2633 3.51278 45.7946 3.36932 46.4025 3.36932C46.7718 3.36932 47.1298 3.4304 47.4764 3.55256C47.823 3.67472 48.1341 3.86648 48.4096 4.12784C48.6852 4.3892 48.9025 4.72869 49.0616 5.14631C49.2207 5.56108 49.3002 6.06534 49.3002 6.65909V7.1108H44.0971V6.15625H48.0517C48.0517 5.82102 47.9835 5.52415 47.8471 5.26562C47.7108 5.00426 47.519 4.7983 47.2718 4.64773C47.0275 4.49716 46.7406 4.42188 46.411 4.42188C46.0531 4.42188 45.7406 4.50994 45.4735 4.68608C45.2093 4.85937 45.0048 5.08665 44.8599 5.3679C44.7179 5.64631 44.6468 5.94886 44.6468 6.27557V7.02131C44.6468 7.45881 44.7235 7.83097 44.877 8.13778C45.0332 8.4446 45.2505 8.67898 45.5289 8.84091C45.8074 9 46.1326 9.07955 46.5048 9.07955C46.7463 9.07955 46.9664 9.04545 47.1653 8.97727C47.3642 8.90625 47.536 8.80114 47.6809 8.66193C47.8258 8.52273 47.9366 8.35085 48.0133 8.14631L49.2193 8.36364C49.1227 8.71875 48.9494 9.02983 48.6994 9.29688C48.4522 9.56108 48.1412 9.76705 47.7662 9.91477C47.394 10.0597 46.9693 10.1321 46.492 10.1321ZM56.1259 3.45455L53.7523 10H52.3887L50.0108 3.45455H51.3787L53.0364 8.49148H53.1046L54.758 3.45455H56.1259ZM57.4256 10V1.27273H60.6216C61.2409 1.27273 61.7537 1.375 62.16 1.57955C62.5662 1.78125 62.8702 2.0554 63.0719 2.40199C63.2736 2.74574 63.3745 3.13352 63.3745 3.56534C63.3745 3.92898 63.3077 4.2358 63.1742 4.4858C63.0407 4.73295 62.8617 4.93182 62.6373 5.08239C62.4157 5.23011 62.1713 5.33807 61.9043 5.40625V5.49148C62.1941 5.50568 62.4767 5.59943 62.7523 5.77273C63.0307 5.94318 63.2608 6.18608 63.4426 6.50142C63.6245 6.81676 63.7154 7.20028 63.7154 7.65199C63.7154 8.09801 63.6103 8.49858 63.4 8.85369C63.1926 9.20597 62.8716 9.4858 62.437 9.69318C62.0023 9.89773 61.4469 10 60.7708 10H57.4256ZM58.7424 8.87074H60.6429C61.2736 8.87074 61.7253 8.74858 61.998 8.50426C62.2708 8.25994 62.4071 7.95455 62.4071 7.58807C62.4071 7.3125 62.3375 7.05966 62.1983 6.82955C62.0591 6.59943 61.8603 6.41619 61.6017 6.27983C61.3461 6.14347 61.0421 6.07528 60.6898 6.07528H58.7424V8.87074ZM58.7424 5.0483H60.5066C60.802 5.0483 61.0676 4.99148 61.3034 4.87784C61.5421 4.7642 61.731 4.60511 61.8702 4.40057C62.0123 4.19318 62.0833 3.94886 62.0833 3.66761C62.0833 3.30682 61.9569 3.00426 61.704 2.75994C61.4512 2.51562 61.0634 2.39347 60.5407 2.39347H58.7424V5.0483ZM66.449 1.27273V10H65.1749V1.27273H66.449ZM70.9203 10.1321C70.3066 10.1321 69.7711 9.99148 69.3137 9.71023C68.8564 9.42898 68.5012 9.03551 68.2484 8.52983C67.9956 8.02415 67.8691 7.43324 67.8691 6.7571C67.8691 6.07812 67.9956 5.48437 68.2484 4.97585C68.5012 4.46733 68.8564 4.07244 69.3137 3.79119C69.7711 3.50994 70.3066 3.36932 70.9203 3.36932C71.5339 3.36932 72.0694 3.50994 72.5268 3.79119C72.9842 4.07244 73.3393 4.46733 73.5922 4.97585C73.845 5.48437 73.9714 6.07812 73.9714 6.7571C73.9714 7.43324 73.845 8.02415 73.5922 8.52983C73.3393 9.03551 72.9842 9.42898 72.5268 9.71023C72.0694 9.99148 71.5339 10.1321 70.9203 10.1321ZM70.9245 9.0625C71.3223 9.0625 71.6518 8.95739 71.9132 8.74716C72.1745 8.53693 72.3677 8.2571 72.4927 7.90767C72.6206 7.55824 72.6845 7.1733 72.6845 6.75284C72.6845 6.33523 72.6206 5.9517 72.4927 5.60227C72.3677 5.25 72.1745 4.96733 71.9132 4.75426C71.6518 4.54119 71.3223 4.43466 70.9245 4.43466C70.524 4.43466 70.1916 4.54119 69.9274 4.75426C69.666 4.96733 69.4714 5.25 69.3436 5.60227C69.2186 5.9517 69.1561 6.33523 69.1561 6.75284C69.1561 7.1733 69.2186 7.55824 69.3436 7.90767C69.4714 8.2571 69.666 8.53693 69.9274 8.74716C70.1916 8.95739 70.524 9.0625 70.9245 9.0625ZM78.138 12.5909C77.6181 12.5909 77.1706 12.5227 76.7956 12.3864C76.4235 12.25 76.1195 12.0696 75.8837 11.8452C75.6479 11.6207 75.4718 11.375 75.3553 11.108L76.4505 10.6562C76.5272 10.7812 76.6294 10.9134 76.7573 11.0526C76.888 11.1946 77.0641 11.3153 77.2857 11.4148C77.5101 11.5142 77.7985 11.5639 78.1507 11.5639C78.6337 11.5639 79.0328 11.446 79.3482 11.2102C79.6635 10.9773 79.8212 10.6051 79.8212 10.0938V8.80682H79.7402C79.6635 8.94602 79.5527 9.10085 79.4078 9.27131C79.2658 9.44176 79.0698 9.58949 78.8198 9.71449C78.5698 9.83949 78.2445 9.90199 77.8439 9.90199C77.3269 9.90199 76.861 9.78125 76.4462 9.53977C76.0343 9.29545 75.7076 8.93608 75.4661 8.46165C75.2275 7.98437 75.1081 7.39773 75.1081 6.7017C75.1081 6.00568 75.226 5.40909 75.4618 4.91193C75.7005 4.41477 76.0272 4.03409 76.4419 3.76989C76.8567 3.50284 77.3269 3.36932 77.8525 3.36932C78.2587 3.36932 78.5868 3.4375 78.8368 3.57386C79.0868 3.70739 79.2814 3.86364 79.4206 4.04261C79.5627 4.22159 79.6721 4.37926 79.7488 4.51562H79.8425V3.45455H81.0911V10.1449C81.0911 10.7074 80.9604 11.169 80.699 11.5298C80.4377 11.8906 80.084 12.1577 79.638 12.331C79.1948 12.5043 78.6948 12.5909 78.138 12.5909ZM78.1252 8.84517C78.4917 8.84517 78.8013 8.75994 79.0542 8.58949C79.3098 8.41619 79.503 8.16903 79.6337 7.84801C79.7672 7.52415 79.834 7.13636 79.834 6.68466C79.834 6.24432 79.7686 5.85653 79.638 5.52131C79.5073 5.18608 79.3155 4.92472 79.0627 4.73722C78.8098 4.54687 78.4973 4.4517 78.1252 4.4517C77.7417 4.4517 77.4221 4.55114 77.1664 4.75C76.9107 4.94602 76.7175 5.21307 76.5868 5.55114C76.459 5.8892 76.3951 6.26705 76.3951 6.68466C76.3951 7.11364 76.4604 7.49006 76.5911 7.81392C76.7218 8.13778 76.915 8.39062 77.1706 8.57244C77.4292 8.75426 77.7473 8.84517 78.1252 8.84517Z" fill="#F5F1F1"/>
</svg>
